<?xml version="1.0" standalone="no"?>
<!DOCTYPE svg PUBLIC "-//W3C//DTD SVG 20010904//EN"
 "http://www.w3.org/TR/2001/REC-SVG-20010904/DTD/svg10.dtd">
<svg version="1.0" xmlns="http://www.w3.org/2000/svg"
 width="600.000000pt" height="600.000000pt" viewBox="0 0 600.000000 600.000000"
 preserveAspectRatio="xMidYMid meet">
<metadata>
Created by potrace 1.11, written by Peter Selinger 2001-2013
</metadata>
<g transform="translate(0.000000,600.000000) scale(0.100000,-0.100000)"
fill="#000000" stroke="none">
<path d="M2718 5945 c-3 -4 -51 -11 -105 -16 -183 -17 -208 -20 -228 -29 -11
-5 -36 -11 -55 -13 -19 -3 -62 -12 -95 -22 -83 -24 -126 -35 -155 -42 -44 -10
-52 -22 -30 -46 11 -11 20 -26 20 -33 0 -7 4 -14 8 -16 11 -4 122 -176 122
-188 0 -6 3 -10 8 -10 4 0 20 -21 36 -48 17 -26 38 -58 48 -72 52 -72 188
-282 188 -290 0 -6 5 -10 10 -10 6 0 10 -7 10 -15 0 -8 5 -15 10 -15 6 0 10
-5 10 -11 0 -6 20 -39 45 -73 25 -35 45 -69 45 -75 0 -6 4 -11 8 -11 5 0 15
-12 23 -27 8 -16 17 -30 20 -33 12 -10 119 -180 119 -189 0 -5 3 -11 8 -13 9
-4 82 -103 82 -112 0 -4 9 -16 20 -28 11 -12 20 -28 20 -35 0 -7 5 -13 10 -13
6 0 10 -5 10 -10 0 -6 34 -60 75 -119 41 -60 75 -114 75 -120 0 -6 3 -11 8
-11 4 0 25 -29 47 -65 22 -36 43 -65 47 -65 4 0 8 -4 8 -10 0 -5 26 -48 58
-96 31 -47 61 -94 67 -105 5 -10 13 -19 17 -19 5 0 8 -7 8 -15 0 -8 5 -15 10
-15 6 0 10 -5 10 -11 0 -6 20 -39 45 -73 25 -35 45 -67 45 -70 0 -4 9 -16 20
-28 11 -12 20 -28 20 -35 0 -7 5 -13 10 -13 6 0 10 -7 10 -15 0 -8 4 -15 9
-15 5 0 12 -8 16 -17 3 -10 16 -31 29 -47 l24 -28 156 230 c86 127 163 238
171 246 8 8 15 17 15 21 0 6 226 342 259 385 62 80 101 101 165 90 132 -24
172 -32 219 -46 28 -9 60 -20 69 -25 10 -5 27 -9 38 -9 10 0 24 -9 30 -20 9
-17 5 -29 -24 -69 -20 -27 -36 -51 -36 -55 0 -3 -7 -14 -14 -23 -8 -10 -32
-41 -53 -70 -21 -28 -46 -62 -55 -75 -28 -38 -110 -153 -194 -273 -42 -60 -80
-112 -84 -115 -3 -3 -21 -27 -40 -55 -19 -27 -36 -52 -39 -55 -3 -3 -10 -12
-16 -21 -5 -9 -35 -50 -66 -90 -30 -41 -73 -99 -94 -129 -22 -30 -47 -62 -57
-71 -10 -9 -18 -21 -18 -26 0 -5 -8 -18 -18 -29 -10 -10 -28 -33 -40 -51 -21
-30 -22 -34 -8 -62 9 -16 21 -35 28 -43 7 -8 18 -23 24 -33 29 -53 40 -70 49
-80 6 -6 20 -27 32 -46 12 -19 56 -85 98 -147 41 -63 75 -118 75 -123 0 -5 5
-9 10 -9 6 0 10 -6 10 -13 0 -7 9 -23 20 -35 11 -12 20 -24 20 -27 0 -4 20
-35 45 -69 25 -35 45 -67 45 -70 0 -4 9 -16 20 -28 11 -12 20 -28 20 -35 0 -7
5 -13 10 -13 6 0 10 -6 10 -14 0 -8 3 -16 8 -18 4 -1 25 -30 47 -63 21 -33 42
-61 47 -63 4 -2 8 -8 8 -14 0 -6 29 -52 65 -103 36 -52 65 -98 65 -104 0 -6 5
-11 10 -11 6 0 10 -7 10 -15 0 -8 5 -15 10 -15 6 0 10 -7 10 -15 0 -8 5 -15
10 -15 6 0 10 -6 10 -14 0 -8 3 -16 8 -18 8 -3 62 -84 62 -93 0 -3 9 -15 20
-27 11 -12 20 -34 20 -49 0 -23 -6 -28 -47 -39 -131 -35 -218 -47 -395 -56
-96 -5 -124 -4 -151 9 -39 19 -87 64 -87 83 0 7 -4 14 -9 16 -8 3 -161 234
-161 244 0 3 -5 10 -10 17 -26 31 -100 147 -100 157 0 5 -4 10 -10 10 -5 0
-10 4 -10 10 0 5 -24 47 -53 92 -29 46 -59 95 -66 111 -8 15 -18 27 -23 27 -4
0 -8 7 -8 15 0 9 -5 21 -10 28 -28 33 -140 215 -140 227 0 4 -7 10 -15 14 -9
3 -15 0 -15 -8 0 -8 -3 -16 -8 -18 -4 -1 -25 -31 -47 -65 -22 -35 -43 -63 -47
-63 -5 0 -8 -7 -8 -15 0 -8 -4 -15 -10 -15 -5 0 -10 -5 -10 -11 0 -12 -110
-172 -122 -177 -4 -2 -8 -8 -8 -13 0 -9 -255 -387 -269 -399 -3 -3 -12 -17
-20 -32 -8 -16 -18 -28 -23 -28 -4 0 -8 -5 -8 -11 0 -8 -44 -73 -78 -114 -5
-6 -31 -45 -59 -85 -112 -169 -236 -345 -244 -348 -5 -2 -9 -10 -9 -18 0 -8
-4 -14 -10 -14 -5 0 -10 -5 -10 -12 0 -6 -17 -34 -38 -62 -21 -28 -44 -61 -50
-73 -7 -12 -18 -27 -25 -35 -7 -7 -44 -58 -81 -113 -38 -55 -73 -101 -78 -103
-4 -2 -8 -8 -8 -14 0 -10 -124 -192 -147 -216 -7 -7 -13 -17 -13 -21 0 -4 -11
-21 -25 -37 -14 -16 -25 -32 -25 -35 0 -3 -11 -19 -25 -35 -14 -16 -25 -33
-25 -37 0 -4 -9 -17 -20 -29 -11 -12 -20 -28 -20 -35 0 -7 -4 -13 -10 -13 -24
0 -7 -31 20 -36 17 -4 30 -10 30 -15 0 -5 13 -9 29 -9 17 0 33 -4 36 -10 3 -5
17 -10 30 -10 13 0 27 -4 30 -10 3 -5 19 -10 35 -10 16 0 32 -4 35 -10 3 -5
17 -10 30 -10 13 0 34 -4 47 -9 20 -8 91 -25 193 -46 261 -56 672 -62 985 -16
104 15 276 54 286 64 4 4 18 7 30 7 13 0 33 4 46 9 13 5 43 14 68 21 25 7 53
16 62 21 10 5 25 9 33 9 8 0 23 4 33 9 9 5 28 13 42 19 14 6 48 21 75 33 28
11 66 28 85 36 57 24 85 38 90 43 3 3 34 20 70 37 36 18 88 46 115 63 28 17
58 33 68 37 9 3 17 9 17 14 0 5 5 9 11 9 12 0 112 70 117 82 2 5 9 8 16 8 7 0
21 8 32 18 10 10 52 44 92 76 180 143 358 326 494 508 35 45 71 92 81 102 9
11 17 24 17 28 0 5 5 14 10 21 19 23 96 142 110 172 8 17 17 32 20 35 6 6 117
233 131 268 21 53 32 78 40 94 5 10 9 26 9 36 0 10 4 22 8 27 5 6 17 37 27 70
11 33 23 64 27 70 4 5 8 21 8 36 0 15 5 31 10 34 6 3 10 21 10 40 0 19 4 36 9
39 9 6 16 44 27 136 3 25 9 54 14 65 5 11 11 47 15 80 3 33 10 96 15 140 20
181 9 558 -20 740 -6 33 -13 84 -16 113 -4 29 -10 55 -15 58 -5 3 -9 23 -9 44
0 21 -4 42 -10 45 -5 3 -10 19 -10 36 0 16 -4 37 -9 47 -5 9 -17 44 -26 77
-10 33 -21 64 -26 70 -5 5 -9 17 -9 27 0 10 -4 27 -10 38 -5 11 -14 29 -20 40
-5 11 -10 27 -10 35 0 8 -4 23 -9 33 -5 9 -23 46 -39 82 -61 134 -66 145 -72
150 -3 3 -16 28 -30 55 -14 28 -28 52 -32 53 -5 2 -8 12 -8 22 0 10 -3 20 -7
22 -11 4 -63 86 -63 98 0 5 -4 10 -8 10 -5 0 -15 12 -23 27 -8 15 -19 35 -26
43 -20 25 -70 92 -105 140 -18 25 -41 54 -53 66 -11 12 -40 44 -63 73 -45 52
-220 231 -228 231 -3 0 -22 16 -83 70 -9 8 -44 35 -76 60 -33 25 -62 47 -65
50 -14 16 -170 120 -179 120 -6 0 -11 5 -11 10 0 6 -4 10 -10 10 -5 0 -42 19
-82 43 -40 24 -88 50 -106 58 -17 7 -32 17 -32 21 0 5 -7 8 -15 8 -8 0 -29 8
-47 18 -18 10 -64 31 -103 46 -38 16 -74 33 -80 38 -5 4 -18 8 -30 8 -12 0
-25 4 -30 8 -6 5 -30 14 -55 21 -25 7 -54 17 -65 21 -11 4 -38 13 -60 19 -22
6 -67 18 -100 27 -33 9 -68 20 -77 25 -10 5 -37 9 -61 9 -24 0 -47 4 -53 9 -5
5 -34 12 -64 15 -30 4 -91 11 -135 16 -97 13 -557 24 -567 15z"/>
<path d="M1485 5570 c-16 -10 -37 -19 -45 -19 -9 -1 -22 -10 -30 -21 -8 -11
-22 -20 -31 -20 -10 0 -26 -11 -37 -25 -11 -14 -26 -25 -34 -25 -8 0 -23 -9
-33 -20 -10 -11 -23 -20 -30 -20 -7 0 -20 -9 -30 -20 -10 -11 -23 -20 -29 -20
-7 0 -32 -20 -56 -45 -24 -25 -49 -45 -55 -45 -6 0 -40 -29 -75 -65 -35 -36
-69 -65 -74 -65 -14 0 -126 -112 -126 -125 0 -6 -34 -44 -75 -85 -41 -41 -75
-79 -75 -85 0 -6 -16 -26 -35 -45 -19 -19 -35 -39 -35 -45 0 -6 -13 -24 -30
-40 -16 -16 -30 -34 -30 -40 0 -6 -11 -22 -25 -35 -14 -13 -25 -32 -25 -42 0
-10 -4 -18 -10 -18 -5 0 -10 -8 -10 -18 0 -10 -9 -24 -20 -32 -11 -8 -20 -19
-20 -26 0 -16 -45 -102 -67 -127 -25 -30 -43 -64 -43 -82 0 -8 -4 -15 -10 -15
-5 0 -10 -11 -10 -24 0 -13 -13 -50 -30 -81 -16 -31 -30 -65 -30 -75 0 -10 -7
-23 -15 -30 -8 -7 -15 -21 -15 -31 0 -11 -4 -19 -10 -19 -5 0 -10 -13 -10 -29
0 -17 -4 -33 -10 -36 -5 -3 -10 -17 -10 -30 0 -13 -4 -27 -10 -30 -5 -3 -10
-24 -10 -46 0 -21 -4 -39 -10 -39 -5 0 -10 -13 -10 -29 0 -17 -5 -33 -10 -36
-6 -3 -10 -28 -10 -55 0 -33 -5 -50 -15 -54 -11 -4 -15 -20 -15 -55 0 -27 -4
-53 -10 -56 -5 -3 -10 -33 -10 -65 0 -32 -5 -62 -10 -65 -6 -3 -10 -50 -10
-105 0 -55 -4 -102 -10 -105 -13 -8 -13 -382 0 -390 6 -3 10 -50 10 -105 0
-55 4 -102 10 -105 5 -3 10 -33 10 -65 0 -32 5 -62 10 -65 6 -3 10 -26 10 -49
0 -27 6 -48 15 -56 9 -7 15 -29 15 -51 0 -21 5 -41 10 -44 6 -3 10 -21 10 -40
0 -19 5 -37 10 -40 6 -3 10 -19 10 -36 0 -16 5 -29 10 -29 6 0 10 -13 10 -29
0 -17 5 -33 10 -36 6 -3 10 -17 10 -30 0 -13 5 -27 10 -30 6 -3 10 -19 10 -35
0 -16 4 -31 9 -35 13 -7 41 -64 41 -81 0 -7 9 -29 20 -49 11 -20 20 -42 20
-50 0 -8 5 -15 10 -15 6 0 10 -9 10 -20 0 -11 5 -20 10 -20 6 0 10 -8 11 -17
0 -10 9 -31 19 -48 11 -16 28 -49 40 -72 11 -23 24 -44 29 -48 12 -7 41 -64
41 -79 0 -7 9 -18 20 -26 11 -8 20 -22 20 -31 0 -9 11 -25 25 -35 14 -10 25
-26 25 -35 0 -8 13 -28 30 -44 16 -16 30 -34 30 -40 0 -6 20 -31 45 -55 25
-24 45 -49 45 -55 0 -13 352 -365 366 -365 6 0 23 -13 39 -30 16 -16 34 -30
40 -30 6 0 26 -16 45 -35 19 -19 41 -35 50 -35 8 0 22 -9 30 -20 8 -11 21 -20
30 -20 9 0 22 -9 30 -20 8 -11 22 -20 31 -20 9 0 24 -9 34 -20 30 -33 69 -49
83 -34 7 7 12 19 12 27 0 7 16 28 35 47 19 19 35 39 35 45 0 7 9 20 20 30 11
10 20 23 20 30 0 7 9 20 20 30 11 10 20 23 20 30 0 6 16 26 35 45 19 19 35 39
35 45 0 7 9 20 20 30 11 10 20 25 20 33 0 8 16 28 35 45 19 16 35 37 35 46 0
9 9 23 20 31 11 8 20 22 20 30 0 9 14 29 30 45 17 16 30 34 30 40 0 6 11 22
25 35 14 13 25 29 25 35 0 7 9 20 20 30 11 10 20 23 20 30 0 6 14 24 30 40 16
16 30 34 30 40 0 6 11 22 25 35 14 13 25 30 25 38 0 8 14 27 30 42 17 15 30
35 30 42 0 8 9 23 20 33 11 10 20 23 20 30 0 6 11 22 25 35 14 13 25 29 25 35
0 6 14 24 30 40 17 16 30 34 30 40 0 6 11 22 25 35 14 13 25 29 25 35 0 6 14
24 30 40 17 16 30 36 30 45 0 8 9 22 20 30 11 8 20 22 20 30 0 9 11 27 25 40
14 13 25 29 25 35 0 6 14 24 30 40 17 16 30 34 30 40 0 7 9 20 20 30 11 10 20
23 20 30 0 6 16 26 35 45 19 19 35 39 35 45 0 7 9 20 20 30 11 10 20 25 20 33
0 8 16 28 35 45 19 16 35 37 35 46 0 9 9 23 20 31 11 8 20 22 20 32 0 10 4 18
9 18 5 0 16 15 24 33 9 17 29 45 46 61 17 17 31 35 31 41 0 7 9 20 20 30 11
10 20 23 20 30 0 6 14 24 30 40 17 16 30 34 30 40 0 6 11 22 25 35 14 13 25
31 25 40 0 8 9 22 20 30 11 8 20 20 20 27 0 7 14 27 30 45 17 17 30 36 30 43
0 7 7 18 15 25 22 18 18 43 -10 70 -14 13 -25 31 -25 40 0 8 -9 22 -20 30 -11
8 -20 21 -20 30 0 9 -9 22 -20 30 -11 8 -20 22 -20 30 0 9 -11 27 -25 40 -14
13 -25 29 -25 35 0 7 -9 20 -20 30 -11 10 -20 24 -20 30 0 7 -7 18 -15 25 -9
7 -24 32 -35 54 -10 23 -28 50 -39 60 -12 11 -21 26 -21 35 0 9 -9 23 -20 31
-11 8 -20 21 -20 30 0 9 -9 22 -20 30 -11 8 -20 22 -20 30 0 9 -11 27 -25 40
-14 13 -25 29 -25 35 0 7 -9 20 -20 30 -11 10 -20 23 -20 30 0 7 -9 20 -20 30
-11 10 -20 23 -20 30 0 7 -9 20 -20 30 -11 10 -20 23 -20 30 0 6 -11 22 -25
35 -14 13 -25 31 -25 40 0 8 -9 22 -20 30 -11 8 -20 22 -20 31 0 9 -9 24 -20
34 -11 10 -20 23 -20 30 0 6 -11 22 -25 35 -14 13 -25 29 -25 35 0 7 -9 20
-20 30 -11 10 -20 23 -20 30 0 7 -9 20 -20 30 -11 10 -20 23 -20 30 0 6 -11
22 -25 35 -14 13 -25 31 -25 40 0 8 -9 22 -20 30 -11 8 -20 21 -20 30 0 9 -9
22 -20 30 -11 8 -20 22 -20 30 0 9 -11 27 -25 40 -14 13 -25 29 -25 35 0 7 -9
20 -20 30 -11 10 -20 23 -20 30 0 7 -9 20 -20 30 -11 10 -20 23 -20 30 0 7 -9
20 -20 30 -11 10 -20 23 -20 30 0 6 -11 22 -25 35 -14 13 -25 31 -25 40 0 8
-9 22 -20 30 -11 8 -20 22 -20 31 0 9 -9 24 -20 34 -11 10 -20 23 -20 30 0 6
-11 22 -25 35 -14 13 -25 29 -25 35 0 7 -9 20 -20 30 -11 10 -20 23 -20 30 0
7 -9 20 -20 30 -11 10 -20 23 -20 30 0 7 -9 20 -20 30 -12 11 -28 34 -37 52
-8 18 -19 33 -24 33 -5 0 -9 8 -9 18 0 10 -9 24 -20 32 -11 8 -20 22 -20 31 0
9 -9 24 -20 34 -11 10 -20 23 -20 30 0 6 -11 22 -25 35 -14 13 -25 29 -25 35
0 7 -9 20 -20 30 -11 10 -20 23 -20 30 0 7 -9 20 -20 30 -11 10 -20 26 -20 37
0 22 -6 22 -45 -2z m95 -1111 c47 -6 93 -15 102 -20 10 -5 36 -9 57 -9 22 0
43 -4 46 -10 3 -5 17 -10 30 -10 14 0 40 -9 60 -20 20 -11 42 -20 51 -20 8 0
33 -12 56 -27 22 -16 50 -33 61 -40 30 -17 177 -166 177 -179 0 -6 7 -17 15
-24 19 -16 45 -68 45 -91 0 -10 4 -20 9 -23 5 -3 11 -23 14 -43 4 -21 11 -72
17 -113 12 -78 5 -216 -11 -226 -5 -3 -9 -18 -9 -34 0 -16 -9 -45 -20 -65 -11
-20 -20 -42 -20 -50 0 -8 -4 -15 -10 -15 -5 0 -10 -5 -10 -10 0 -22 -58 -98
-123 -162 -37 -38 -71 -68 -75 -68 -4 0 -20 -12 -36 -26 -27 -24 -28 -26 -10
-39 11 -8 26 -15 35 -15 19 0 76 -28 84 -40 3 -5 27 -19 53 -32 49 -24 222
-190 222 -213 0 -7 7 -18 15 -25 19 -16 45 -68 45 -91 0 -10 4 -20 9 -23 5 -3
17 -35 26 -70 15 -54 17 -90 12 -213 -6 -148 -17 -208 -50 -272 -9 -19 -17
-40 -17 -47 0 -15 -30 -71 -63 -119 -37 -54 -191 -206 -224 -222 -18 -8 -33
-19 -33 -24 0 -5 -9 -9 -20 -9 -11 0 -20 -4 -20 -8 0 -8 -27 -23 -153 -83 -22
-11 -50 -19 -63 -19 -13 0 -24 -4 -24 -10 0 -5 -18 -10 -39 -10 -22 0 -43 -5
-46 -10 -3 -6 -19 -10 -36 -10 -16 0 -37 -4 -47 -9 -67 -36 -515 -44 -772 -15
-80 9 -172 18 -205 21 -33 3 -64 9 -70 14 -5 5 -27 9 -49 9 -23 0 -47 7 -58
17 -17 15 -18 67 -18 1234 0 801 -3 1220 -10 1224 -6 4 -10 64 -10 149 l0 142
28 27 c25 24 36 27 94 27 37 0 70 5 73 10 3 6 41 10 84 10 43 0 81 3 85 8 25
25 586 42 746 21z"/>
<path d="M1155 4083 c-27 -2 -55 -9 -62 -15 -10 -8 -13 -101 -13 -424 l0 -414
39 0 c22 0 43 5 46 10 4 6 82 10 200 10 l194 0 45 45 c25 25 46 49 46 53 0 5
11 22 25 38 14 16 25 39 25 51 0 12 5 25 10 28 6 3 10 24 10 45 0 21 5 42 10
45 6 3 10 50 10 105 0 55 -4 102 -10 105 -5 3 -10 19 -10 34 0 36 -38 110 -82
160 -40 46 -137 101 -177 101 -15 0 -32 5 -38 11 -12 12 -185 20 -268 12z"/>
<path d="M1080 2391 l0 -469 65 -7 c96 -11 322 -2 337 13 7 7 20 12 30 12 37
0 163 69 204 112 45 48 102 155 111 212 3 20 10 39 14 42 13 7 11 204 -1 204
-5 0 -10 14 -10 31 0 32 -46 129 -62 129 -4 0 -8 6 -8 13 0 16 -52 67 -68 67
-7 0 -12 4 -12 8 0 9 -15 18 -103 56 -32 14 -71 26 -87 26 -16 0 -32 5 -35 10
-4 6 -78 10 -191 10 l-184 0 0 -469z"/>
</g>
</svg>
